<mxfile host="app.diagrams.net" modified="2020-09-15T23:54:06.275Z" agent="5.0 (Windows NT 10.0; Win64; x64) AppleWebKit/537.36 (KHTML, like Gecko) Chrome/85.0.4183.102 Safari/537.36" etag="sAI6oNnA_-0rP7pdHafY" version="13.7.1" type="github">
  <diagram id="07fea595-8f29-1299-0266-81d95cde20df" name="Page-1">
    <mxGraphModel dx="-1300" dy="-328" grid="1" gridSize="10" guides="1" tooltips="1" connect="1" arrows="1" fold="1" page="1" pageScale="1" pageWidth="1169" pageHeight="827" background="#ffffff" math="0" shadow="0">
      <root>
        <mxCell id="0" />
        <mxCell id="1" parent="0" />
        <mxCell id="727" value="" style="edgeStyle=none;html=1;fontColor=#000000;strokeWidth=3;strokeColor=#000000;" parent="1" edge="1">
          <mxGeometry width="100" height="100" relative="1" as="geometry">
            <mxPoint x="2438" y="1625.5" as="sourcePoint" />
            <mxPoint x="2437.5" y="890" as="targetPoint" />
          </mxGeometry>
        </mxCell>
        <mxCell id="734" value="" style="edgeStyle=none;html=1;fontColor=#000000;strokeWidth=3;strokeColor=#000000;" parent="1" edge="1">
          <mxGeometry width="100" height="100" relative="1" as="geometry">
            <mxPoint x="2437.5" y="1346" as="sourcePoint" />
            <mxPoint x="3240" y="1346" as="targetPoint" />
          </mxGeometry>
        </mxCell>
        <mxCell id="736" value="1" style="text;spacingTop=-5;align=center;verticalAlign=middle;fontStyle=0;html=1;fontSize=18;points=[];strokeColor=none;" parent="1" vertex="1">
          <mxGeometry x="2450" y="1371.5" width="60" height="30" as="geometry" />
        </mxCell>
        <mxCell id="749" value="dy(t)dt Part 3 Task 4" style="text;spacingTop=-5;align=center;verticalAlign=middle;fontSize=30;fontStyle=1;html=1;points=[]" parent="1" vertex="1">
          <mxGeometry x="2437.5" y="854.5" width="810" height="45" as="geometry" />
        </mxCell>
        <mxCell id="0F28lmxKl5VHdZFk9SyW-752" value="" style="endArrow=none;html=1;" edge="1" parent="1">
          <mxGeometry width="50" height="50" relative="1" as="geometry">
            <mxPoint x="2480" y="1371.5" as="sourcePoint" />
            <mxPoint x="2480" y="1321.5" as="targetPoint" />
          </mxGeometry>
        </mxCell>
        <mxCell id="0F28lmxKl5VHdZFk9SyW-753" value="" style="endArrow=none;html=1;" edge="1" parent="1">
          <mxGeometry width="50" height="50" relative="1" as="geometry">
            <mxPoint x="2560" y="1371.5" as="sourcePoint" />
            <mxPoint x="2560" y="1321.5" as="targetPoint" />
          </mxGeometry>
        </mxCell>
        <mxCell id="0F28lmxKl5VHdZFk9SyW-755" value="2" style="text;spacingTop=-5;align=center;verticalAlign=middle;fontStyle=0;html=1;fontSize=18;points=[];strokeColor=none;" vertex="1" parent="1">
          <mxGeometry x="2500" y="1371.5" width="120" height="30" as="geometry" />
        </mxCell>
        <mxCell id="0F28lmxKl5VHdZFk9SyW-756" value="3" style="text;spacingTop=-5;align=center;verticalAlign=middle;fontStyle=0;html=1;fontSize=18;points=[];strokeColor=none;" vertex="1" parent="1">
          <mxGeometry x="2580" y="1371.5" width="120" height="30" as="geometry" />
        </mxCell>
        <mxCell id="0F28lmxKl5VHdZFk9SyW-757" value="" style="endArrow=none;html=1;" edge="1" parent="1">
          <mxGeometry width="50" height="50" relative="1" as="geometry">
            <mxPoint x="2640" y="1371.5" as="sourcePoint" />
            <mxPoint x="2640" y="1321.5" as="targetPoint" />
          </mxGeometry>
        </mxCell>
        <mxCell id="0F28lmxKl5VHdZFk9SyW-758" value="" style="endArrow=none;html=1;" edge="1" parent="1">
          <mxGeometry width="50" height="50" relative="1" as="geometry">
            <mxPoint x="2720" y="1371.5" as="sourcePoint" />
            <mxPoint x="2720" y="1321.5" as="targetPoint" />
          </mxGeometry>
        </mxCell>
        <mxCell id="0F28lmxKl5VHdZFk9SyW-759" value="4" style="text;spacingTop=-5;align=center;verticalAlign=middle;fontStyle=0;html=1;fontSize=18;points=[];strokeColor=none;" vertex="1" parent="1">
          <mxGeometry x="2660" y="1371.5" width="120" height="30" as="geometry" />
        </mxCell>
        <mxCell id="0F28lmxKl5VHdZFk9SyW-762" value="5" style="text;spacingTop=-5;align=center;verticalAlign=middle;fontStyle=0;html=1;fontSize=18;points=[];strokeColor=none;" vertex="1" parent="1">
          <mxGeometry x="2740" y="1371.5" width="120" height="30" as="geometry" />
        </mxCell>
        <mxCell id="0F28lmxKl5VHdZFk9SyW-763" value="" style="endArrow=none;html=1;" edge="1" parent="1">
          <mxGeometry width="50" height="50" relative="1" as="geometry">
            <mxPoint x="2800" y="1371.5" as="sourcePoint" />
            <mxPoint x="2800" y="1321.5" as="targetPoint" />
          </mxGeometry>
        </mxCell>
        <mxCell id="0F28lmxKl5VHdZFk9SyW-764" value="" style="endArrow=none;html=1;" edge="1" parent="1">
          <mxGeometry width="50" height="50" relative="1" as="geometry">
            <mxPoint x="2880" y="1371.5" as="sourcePoint" />
            <mxPoint x="2880" y="1321.5" as="targetPoint" />
          </mxGeometry>
        </mxCell>
        <mxCell id="0F28lmxKl5VHdZFk9SyW-765" value="6" style="text;spacingTop=-5;align=center;verticalAlign=middle;fontStyle=0;html=1;fontSize=18;points=[];strokeColor=none;" vertex="1" parent="1">
          <mxGeometry x="2820" y="1371.5" width="120" height="30" as="geometry" />
        </mxCell>
        <mxCell id="0F28lmxKl5VHdZFk9SyW-766" value="7" style="text;spacingTop=-5;align=center;verticalAlign=middle;fontStyle=0;html=1;fontSize=18;points=[];strokeColor=none;" vertex="1" parent="1">
          <mxGeometry x="2900" y="1371.5" width="120" height="30" as="geometry" />
        </mxCell>
        <mxCell id="0F28lmxKl5VHdZFk9SyW-767" value="" style="endArrow=none;html=1;" edge="1" parent="1">
          <mxGeometry width="50" height="50" relative="1" as="geometry">
            <mxPoint x="2960" y="1371.5" as="sourcePoint" />
            <mxPoint x="2960" y="1321.5" as="targetPoint" />
          </mxGeometry>
        </mxCell>
        <mxCell id="0F28lmxKl5VHdZFk9SyW-768" value="" style="endArrow=none;html=1;" edge="1" parent="1">
          <mxGeometry width="50" height="50" relative="1" as="geometry">
            <mxPoint x="3040" y="1371.5" as="sourcePoint" />
            <mxPoint x="3040" y="1321.5" as="targetPoint" />
          </mxGeometry>
        </mxCell>
        <mxCell id="0F28lmxKl5VHdZFk9SyW-769" value="8" style="text;spacingTop=-5;align=center;verticalAlign=middle;fontStyle=0;html=1;fontSize=18;points=[];strokeColor=none;" vertex="1" parent="1">
          <mxGeometry x="2980" y="1371.5" width="120" height="30" as="geometry" />
        </mxCell>
        <mxCell id="0F28lmxKl5VHdZFk9SyW-771" value="" style="endArrow=none;html=1;" edge="1" parent="1">
          <mxGeometry width="50" height="50" relative="1" as="geometry">
            <mxPoint x="2460" y="1305.5" as="sourcePoint" />
            <mxPoint x="2410" y="1305.5" as="targetPoint" />
          </mxGeometry>
        </mxCell>
        <mxCell id="0F28lmxKl5VHdZFk9SyW-772" value="" style="endArrow=none;html=1;" edge="1" parent="1">
          <mxGeometry width="50" height="50" relative="1" as="geometry">
            <mxPoint x="2460" y="1265.5" as="sourcePoint" />
            <mxPoint x="2410" y="1265.5" as="targetPoint" />
          </mxGeometry>
        </mxCell>
        <mxCell id="0F28lmxKl5VHdZFk9SyW-773" value="" style="endArrow=none;html=1;" edge="1" parent="1">
          <mxGeometry width="50" height="50" relative="1" as="geometry">
            <mxPoint x="2460" y="1225.5" as="sourcePoint" />
            <mxPoint x="2410" y="1225.5" as="targetPoint" />
          </mxGeometry>
        </mxCell>
        <mxCell id="0F28lmxKl5VHdZFk9SyW-774" value="" style="endArrow=none;html=1;" edge="1" parent="1">
          <mxGeometry width="50" height="50" relative="1" as="geometry">
            <mxPoint x="2460" y="1185.5" as="sourcePoint" />
            <mxPoint x="2410" y="1185.5" as="targetPoint" />
          </mxGeometry>
        </mxCell>
        <mxCell id="0F28lmxKl5VHdZFk9SyW-775" value="" style="endArrow=none;html=1;" edge="1" parent="1">
          <mxGeometry width="50" height="50" relative="1" as="geometry">
            <mxPoint x="2460" y="1145.5" as="sourcePoint" />
            <mxPoint x="2410" y="1145.5" as="targetPoint" />
          </mxGeometry>
        </mxCell>
        <mxCell id="0F28lmxKl5VHdZFk9SyW-776" value="" style="endArrow=none;html=1;" edge="1" parent="1">
          <mxGeometry width="50" height="50" relative="1" as="geometry">
            <mxPoint x="2460" y="1105.5" as="sourcePoint" />
            <mxPoint x="2410" y="1105.5" as="targetPoint" />
          </mxGeometry>
        </mxCell>
        <mxCell id="0F28lmxKl5VHdZFk9SyW-777" value="" style="endArrow=none;html=1;" edge="1" parent="1">
          <mxGeometry width="50" height="50" relative="1" as="geometry">
            <mxPoint x="2460" y="1066.5" as="sourcePoint" />
            <mxPoint x="2410" y="1066.5" as="targetPoint" />
          </mxGeometry>
        </mxCell>
        <mxCell id="0F28lmxKl5VHdZFk9SyW-788" value="0,0" style="text;spacingTop=-5;align=center;verticalAlign=middle;fontStyle=0;html=1;fontSize=18;points=[];strokeColor=none;" vertex="1" parent="1">
          <mxGeometry x="2405" y="1341.5" width="32.5" height="30" as="geometry" />
        </mxCell>
        <mxCell id="0F28lmxKl5VHdZFk9SyW-792" value="" style="endArrow=none;html=1;" edge="1" parent="1">
          <mxGeometry width="50" height="50" relative="1" as="geometry">
            <mxPoint x="3040" y="1371.5" as="sourcePoint" />
            <mxPoint x="3040" y="1321.5" as="targetPoint" />
          </mxGeometry>
        </mxCell>
        <mxCell id="0F28lmxKl5VHdZFk9SyW-793" value="" style="endArrow=none;html=1;" edge="1" parent="1">
          <mxGeometry width="50" height="50" relative="1" as="geometry">
            <mxPoint x="2960" y="1371.5" as="sourcePoint" />
            <mxPoint x="2960" y="1321.5" as="targetPoint" />
          </mxGeometry>
        </mxCell>
        <mxCell id="0F28lmxKl5VHdZFk9SyW-794" value="" style="endArrow=none;html=1;" edge="1" parent="1">
          <mxGeometry width="50" height="50" relative="1" as="geometry">
            <mxPoint x="2880" y="1371.5" as="sourcePoint" />
            <mxPoint x="2880" y="1321.5" as="targetPoint" />
          </mxGeometry>
        </mxCell>
        <mxCell id="0F28lmxKl5VHdZFk9SyW-795" value="" style="endArrow=none;html=1;" edge="1" parent="1">
          <mxGeometry width="50" height="50" relative="1" as="geometry">
            <mxPoint x="2800" y="1371.5" as="sourcePoint" />
            <mxPoint x="2800" y="1321.5" as="targetPoint" />
          </mxGeometry>
        </mxCell>
        <mxCell id="0F28lmxKl5VHdZFk9SyW-796" value="" style="endArrow=none;html=1;" edge="1" parent="1">
          <mxGeometry width="50" height="50" relative="1" as="geometry">
            <mxPoint x="2720" y="1371.5" as="sourcePoint" />
            <mxPoint x="2720" y="1321.5" as="targetPoint" />
          </mxGeometry>
        </mxCell>
        <mxCell id="0F28lmxKl5VHdZFk9SyW-797" value="" style="endArrow=none;html=1;" edge="1" parent="1">
          <mxGeometry width="50" height="50" relative="1" as="geometry">
            <mxPoint x="2640" y="1371.5" as="sourcePoint" />
            <mxPoint x="2640" y="1321.5" as="targetPoint" />
          </mxGeometry>
        </mxCell>
        <mxCell id="0F28lmxKl5VHdZFk9SyW-798" value="" style="endArrow=none;html=1;" edge="1" parent="1">
          <mxGeometry width="50" height="50" relative="1" as="geometry">
            <mxPoint x="3040" y="1371.5" as="sourcePoint" />
            <mxPoint x="3040" y="1321.5" as="targetPoint" />
          </mxGeometry>
        </mxCell>
        <mxCell id="0F28lmxKl5VHdZFk9SyW-799" value="" style="endArrow=none;html=1;" edge="1" parent="1">
          <mxGeometry width="50" height="50" relative="1" as="geometry">
            <mxPoint x="2960" y="1371.5" as="sourcePoint" />
            <mxPoint x="2960" y="1321.5" as="targetPoint" />
          </mxGeometry>
        </mxCell>
        <mxCell id="0F28lmxKl5VHdZFk9SyW-800" value="" style="endArrow=none;html=1;" edge="1" parent="1">
          <mxGeometry width="50" height="50" relative="1" as="geometry">
            <mxPoint x="2880" y="1371.5" as="sourcePoint" />
            <mxPoint x="2880" y="1321.5" as="targetPoint" />
          </mxGeometry>
        </mxCell>
        <mxCell id="0F28lmxKl5VHdZFk9SyW-801" value="" style="endArrow=none;html=1;" edge="1" parent="1">
          <mxGeometry width="50" height="50" relative="1" as="geometry">
            <mxPoint x="2800" y="1371.5" as="sourcePoint" />
            <mxPoint x="2800" y="1321.5" as="targetPoint" />
          </mxGeometry>
        </mxCell>
        <mxCell id="0F28lmxKl5VHdZFk9SyW-802" value="" style="endArrow=none;html=1;" edge="1" parent="1">
          <mxGeometry width="50" height="50" relative="1" as="geometry">
            <mxPoint x="2720" y="1371.5" as="sourcePoint" />
            <mxPoint x="2720" y="1321.5" as="targetPoint" />
          </mxGeometry>
        </mxCell>
        <mxCell id="0F28lmxKl5VHdZFk9SyW-803" value="" style="endArrow=none;html=1;" edge="1" parent="1">
          <mxGeometry width="50" height="50" relative="1" as="geometry">
            <mxPoint x="2640" y="1371.5" as="sourcePoint" />
            <mxPoint x="2640" y="1321.5" as="targetPoint" />
          </mxGeometry>
        </mxCell>
        <mxCell id="0F28lmxKl5VHdZFk9SyW-804" value="" style="endArrow=none;html=1;" edge="1" parent="1">
          <mxGeometry width="50" height="50" relative="1" as="geometry">
            <mxPoint x="3040" y="1371.5" as="sourcePoint" />
            <mxPoint x="3040" y="1321.5" as="targetPoint" />
          </mxGeometry>
        </mxCell>
        <mxCell id="0F28lmxKl5VHdZFk9SyW-805" value="" style="endArrow=none;html=1;" edge="1" parent="1">
          <mxGeometry width="50" height="50" relative="1" as="geometry">
            <mxPoint x="2960" y="1371.5" as="sourcePoint" />
            <mxPoint x="2960" y="1321.5" as="targetPoint" />
          </mxGeometry>
        </mxCell>
        <mxCell id="0F28lmxKl5VHdZFk9SyW-806" value="" style="endArrow=none;html=1;" edge="1" parent="1">
          <mxGeometry width="50" height="50" relative="1" as="geometry">
            <mxPoint x="2880" y="1371.5" as="sourcePoint" />
            <mxPoint x="2880" y="1321.5" as="targetPoint" />
          </mxGeometry>
        </mxCell>
        <mxCell id="0F28lmxKl5VHdZFk9SyW-807" value="" style="endArrow=none;html=1;" edge="1" parent="1">
          <mxGeometry width="50" height="50" relative="1" as="geometry">
            <mxPoint x="2800" y="1371.5" as="sourcePoint" />
            <mxPoint x="2800" y="1321.5" as="targetPoint" />
          </mxGeometry>
        </mxCell>
        <mxCell id="0F28lmxKl5VHdZFk9SyW-808" value="" style="endArrow=none;html=1;" edge="1" parent="1">
          <mxGeometry width="50" height="50" relative="1" as="geometry">
            <mxPoint x="2720" y="1371.5" as="sourcePoint" />
            <mxPoint x="2720" y="1321.5" as="targetPoint" />
          </mxGeometry>
        </mxCell>
        <mxCell id="0F28lmxKl5VHdZFk9SyW-809" value="" style="endArrow=none;html=1;" edge="1" parent="1">
          <mxGeometry width="50" height="50" relative="1" as="geometry">
            <mxPoint x="2640" y="1371.5" as="sourcePoint" />
            <mxPoint x="2640" y="1321.5" as="targetPoint" />
          </mxGeometry>
        </mxCell>
        <mxCell id="0F28lmxKl5VHdZFk9SyW-811" value="" style="endArrow=none;html=1;fillColor=#f8cecc;strokeColor=#3333FF;endSize=6;startSize=6;strokeWidth=3;" edge="1" parent="1">
          <mxGeometry width="50" height="50" relative="1" as="geometry">
            <mxPoint x="2440" y="1305.5" as="sourcePoint" />
            <mxPoint x="2640" y="1305.5" as="targetPoint" />
          </mxGeometry>
        </mxCell>
        <mxCell id="0F28lmxKl5VHdZFk9SyW-812" value="" style="endArrow=none;html=1;fillColor=#f8cecc;strokeColor=#3333FF;endSize=6;startSize=6;strokeWidth=3;" edge="1" parent="1">
          <mxGeometry width="50" height="50" relative="1" as="geometry">
            <mxPoint x="2640" y="985.5" as="sourcePoint" />
            <mxPoint x="2640" y="1345.5" as="targetPoint" />
          </mxGeometry>
        </mxCell>
        <mxCell id="0F28lmxKl5VHdZFk9SyW-814" value="" style="endArrow=none;dashed=1;html=1;dashPattern=1 3;strokeWidth=2;" edge="1" parent="1">
          <mxGeometry width="50" height="50" relative="1" as="geometry">
            <mxPoint x="2416.25" y="1055.5" as="sourcePoint" />
            <mxPoint x="2416" y="1025.5" as="targetPoint" />
          </mxGeometry>
        </mxCell>
        <mxCell id="0F28lmxKl5VHdZFk9SyW-815" value="" style="endArrow=none;html=1;" edge="1" parent="1">
          <mxGeometry width="50" height="50" relative="1" as="geometry">
            <mxPoint x="2460" y="985.5" as="sourcePoint" />
            <mxPoint x="2410" y="985.5" as="targetPoint" />
          </mxGeometry>
        </mxCell>
        <mxCell id="0F28lmxKl5VHdZFk9SyW-816" value="" style="endArrow=none;html=1;fillColor=#f8cecc;strokeColor=#3333FF;endSize=6;startSize=6;strokeWidth=3;" edge="1" parent="1">
          <mxGeometry width="50" height="50" relative="1" as="geometry">
            <mxPoint x="2640" y="1345.5" as="sourcePoint" />
            <mxPoint x="2880" y="1345.5" as="targetPoint" />
          </mxGeometry>
        </mxCell>
        <mxCell id="0F28lmxKl5VHdZFk9SyW-817" value="" style="endArrow=none;html=1;" edge="1" parent="1">
          <mxGeometry width="50" height="50" relative="1" as="geometry">
            <mxPoint x="2455" y="1585.5" as="sourcePoint" />
            <mxPoint x="2405" y="1585.5" as="targetPoint" />
          </mxGeometry>
        </mxCell>
        <mxCell id="0F28lmxKl5VHdZFk9SyW-818" value="" style="endArrow=none;html=1;" edge="1" parent="1">
          <mxGeometry width="50" height="50" relative="1" as="geometry">
            <mxPoint x="2460" y="1505.5" as="sourcePoint" />
            <mxPoint x="2410" y="1505.5" as="targetPoint" />
          </mxGeometry>
        </mxCell>
        <mxCell id="0F28lmxKl5VHdZFk9SyW-819" value="" style="endArrow=none;html=1;" edge="1" parent="1">
          <mxGeometry width="50" height="50" relative="1" as="geometry">
            <mxPoint x="2460" y="1465.5" as="sourcePoint" />
            <mxPoint x="2410" y="1465.5" as="targetPoint" />
          </mxGeometry>
        </mxCell>
        <mxCell id="0F28lmxKl5VHdZFk9SyW-820" value="" style="endArrow=none;html=1;" edge="1" parent="1">
          <mxGeometry width="50" height="50" relative="1" as="geometry">
            <mxPoint x="2460" y="1425.5" as="sourcePoint" />
            <mxPoint x="2410" y="1425.5" as="targetPoint" />
          </mxGeometry>
        </mxCell>
        <mxCell id="0F28lmxKl5VHdZFk9SyW-821" value="" style="endArrow=none;html=1;" edge="1" parent="1">
          <mxGeometry width="50" height="50" relative="1" as="geometry">
            <mxPoint x="2460" y="1385.5" as="sourcePoint" />
            <mxPoint x="2410" y="1385.5" as="targetPoint" />
          </mxGeometry>
        </mxCell>
        <mxCell id="0F28lmxKl5VHdZFk9SyW-822" value="" style="endArrow=none;dashed=1;html=1;dashPattern=1 3;strokeWidth=2;" edge="1" parent="1">
          <mxGeometry width="50" height="50" relative="1" as="geometry">
            <mxPoint x="2426.25" y="1558.5" as="sourcePoint" />
            <mxPoint x="2426" y="1528.5" as="targetPoint" />
          </mxGeometry>
        </mxCell>
        <mxCell id="0F28lmxKl5VHdZFk9SyW-823" value="" style="endArrow=none;html=1;fillColor=#f8cecc;strokeColor=#3333FF;endSize=6;startSize=6;strokeWidth=3;" edge="1" parent="1">
          <mxGeometry width="50" height="50" relative="1" as="geometry">
            <mxPoint x="2879.5" y="1341.5" as="sourcePoint" />
            <mxPoint x="2879" y="1585.5" as="targetPoint" />
          </mxGeometry>
        </mxCell>
        <mxCell id="0F28lmxKl5VHdZFk9SyW-824" value="" style="endArrow=classic;html=1;fillColor=#f8cecc;strokeColor=#3333FF;strokeWidth=3;targetPerimeterSpacing=9;endFill=0;" edge="1" parent="1">
          <mxGeometry width="50" height="50" relative="1" as="geometry">
            <mxPoint x="2880" y="1425.5" as="sourcePoint" />
            <mxPoint x="3080" y="1425.5" as="targetPoint" />
          </mxGeometry>
        </mxCell>
        <mxCell id="0F28lmxKl5VHdZFk9SyW-825" value="&lt;p class=&quot;MsoNormal&quot; align=&quot;center&quot;&gt;&lt;font size=&quot;1&quot;&gt;&lt;b style=&quot;font-size: 22px&quot;&gt;∞&lt;/b&gt;&lt;/font&gt;&lt;span style=&quot;font-size: 13px&quot;&gt;&lt;/span&gt;&lt;/p&gt;" style="text;html=1;strokeColor=none;fillColor=none;align=center;verticalAlign=middle;whiteSpace=wrap;rounded=0;" vertex="1" parent="1">
          <mxGeometry x="2360" y="975.5" width="45" height="20" as="geometry" />
        </mxCell>
        <mxCell id="0F28lmxKl5VHdZFk9SyW-826" value="&lt;p class=&quot;MsoNormal&quot; align=&quot;center&quot;&gt;&lt;font size=&quot;1&quot;&gt;&lt;b style=&quot;font-size: 22px&quot;&gt;-∞&lt;/b&gt;&lt;/font&gt;&lt;span style=&quot;font-size: 13px&quot;&gt;&lt;/span&gt;&lt;/p&gt;" style="text;html=1;strokeColor=none;fillColor=none;align=center;verticalAlign=middle;whiteSpace=wrap;rounded=0;" vertex="1" parent="1">
          <mxGeometry x="2360" y="1575.5" width="45" height="20" as="geometry" />
        </mxCell>
        <mxCell id="0F28lmxKl5VHdZFk9SyW-827" value="1" style="text;spacingTop=-5;align=center;verticalAlign=middle;fontStyle=0;html=1;fontSize=18;points=[];strokeColor=none;" vertex="1" parent="1">
          <mxGeometry x="2360" y="1295.5" width="60" height="30" as="geometry" />
        </mxCell>
        <mxCell id="0F28lmxKl5VHdZFk9SyW-828" value="-1" style="text;spacingTop=-5;align=center;verticalAlign=middle;fontStyle=0;html=1;fontSize=18;points=[];strokeColor=none;" vertex="1" parent="1">
          <mxGeometry x="2360" y="1371.5" width="60" height="30" as="geometry" />
        </mxCell>
        <mxCell id="0F28lmxKl5VHdZFk9SyW-829" value="-2" style="text;spacingTop=-5;align=center;verticalAlign=middle;fontStyle=0;html=1;fontSize=18;points=[];strokeColor=none;" vertex="1" parent="1">
          <mxGeometry x="2360" y="1415.5" width="60" height="30" as="geometry" />
        </mxCell>
        <mxCell id="0F28lmxKl5VHdZFk9SyW-830" value="-3" style="text;spacingTop=-5;align=center;verticalAlign=middle;fontStyle=0;html=1;fontSize=18;points=[];strokeColor=none;" vertex="1" parent="1">
          <mxGeometry x="2360" y="1455.5" width="60" height="30" as="geometry" />
        </mxCell>
        <mxCell id="0F28lmxKl5VHdZFk9SyW-831" value="-4" style="text;spacingTop=-5;align=center;verticalAlign=middle;fontStyle=0;html=1;fontSize=18;points=[];strokeColor=none;" vertex="1" parent="1">
          <mxGeometry x="2360" y="1495.5" width="60" height="30" as="geometry" />
        </mxCell>
        <mxCell id="0F28lmxKl5VHdZFk9SyW-832" value="time" style="text;spacingTop=-5;align=center;verticalAlign=middle;fontStyle=0;html=1;fontSize=18;points=[];strokeColor=none;" vertex="1" parent="1">
          <mxGeometry x="3210" y="1330" width="120" height="30" as="geometry" />
        </mxCell>
        <mxCell id="0F28lmxKl5VHdZFk9SyW-833" value="dy(t)/dt" style="text;spacingTop=-5;align=center;verticalAlign=middle;fontStyle=0;html=1;fontSize=18;points=[];strokeColor=none;" vertex="1" parent="1">
          <mxGeometry x="2370" y="869.5" width="120" height="30" as="geometry" />
        </mxCell>
      </root>
    </mxGraphModel>
  </diagram>
</mxfile>
